# xmcd CD database file
#
# Track frame offsets:
#	150
#	14175
#	32764
#	47915
#	59932
#	75763
#	91988
#	106889
#	122748
#	135336
#	150817
#	165858
#	177984
#	191899
#	209249
#	222933
#	235516
#	249920
#	265837
#	280229
#	292823
#	307109
#
# Disc length: 4300 seconds
#
# Revision: 0
# Processed by: cddbd v1.5.2PL0 Copyright (c) Steve Scherf et al.
# Submitted via: jetAudio 7
#
DISCID=3310ca16
DTITLE=JADS E JADSON - AO VIVO
DYEAR=1900
DGENRE=Country
TTITLE0=JEITO CARINHOSO
TTITLE1=PLANOS IMPOSSÍVEIS
TTITLE2=ANDO FALANDO SOZINHO
TTITLE3=TOMANDO UMA GELADA
TTITLE4=NA SUA ESTANTE
TTITLE5=CARA NA PORTA
TTITLE6=CONTO DE FADAS
TTITLE7=DO CAIPIRA AO UNIVERSO
TTITLE8=EUCALIPTO
TTITLE9=MOÇA
TTITLE10=COM TODOS MENOS COMIGO
TTITLE11=OVERDOSE DE AMOR
TTITLE12=VAI EMBORA
TTITLE13=MINUTO DE FRAGILIDADE
TTITLE14=O AMOR NÃO DEIXA
TTITLE15=EU SEMPRE VOU TE AMAR
TTITLE16=É SEMPRE ASSIM
TTITLE17=CORAÇÃO IDIOTA
TTITLE18=CASA CAÍDA
TTITLE19=VEM PRA CAMPO GRANDE
TTITLE20=FALTAVA ALGUÉM
TTITLE21=SELEÇÃO DE PAGODE
EXTD=
EXTT0=
EXTT1=
EXTT2=
EXTT3=
EXTT4=
EXTT5=
EXTT6=
EXTT7=
EXTT8=
EXTT9=
EXTT10=
EXTT11=
EXTT12=
EXTT13=
EXTT14=
EXTT15=
EXTT16=
EXTT17=
EXTT18=
EXTT19=
EXTT20=
EXTT21=
PLAYORDER=
